<svg xmlns="http://www.w3.org/2000/svg" viewBox="0 0 30 30"><defs><style>.cls-1{fill:none;opacity:0.09;}</style></defs><title>Person</title><g id="Layer_2" data-name="Layer 2"><g id="Layer_10" data-name="Layer 10"><path d="M20,5V25H0V5ZM18.34,6.87H1.66V23.19H18.34ZM5.33,19v2.5H3.5V19a2.63,2.63,0,0,1,.86-2,2.81,2.81,0,0,1,2-.79h7.34a2.63,2.63,0,0,1,2,.85,2.81,2.81,0,0,1,.79,2v2.5H14.67V19a1,1,0,0,0-.31-.68,1,1,0,0,0-.69-.31H6.33a1,1,0,0,0-.69.31,1,1,0,0,0-.31.68ZM10,15a2.9,2.9,0,0,1-2.13-.88A2.94,2.94,0,0,1,7,12,2.9,2.9,0,0,1,7.87,9.9a3,3,0,0,1,4.26,0A2.9,2.9,0,0,1,13,12a2.94,2.94,0,0,1-.88,2.13A2.9,2.9,0,0,1,10,15Zm0-4.34a1.27,1.27,0,0,0-.92.42,1.24,1.24,0,0,0,0,1.84,1.22,1.22,0,0,0,1.84,0,1.24,1.24,0,0,0,0-1.84,1.27,1.27,0,0,0-.92-.42Z"/><rect class="cls-1" width="30" height="30"/></g></g></svg>