<svg xmlns="http://www.w3.org/2000/svg" viewBox="0 0 30 30"><defs><style>.cls-1{opacity:0.09;}.cls-2{fill:none;}</style></defs><title>Warning</title><g id="Layer_2" data-name="Layer 2"><g id="Layer_10" data-name="Layer 10"><path d="M10,25a9.84,9.84,0,0,1-3.9-.78A10,10,0,0,1,.78,18.93a10.14,10.14,0,0,1,0-7.8A9.84,9.84,0,0,1,2.92,8,10,10,0,0,1,6.1,5.81,9.84,9.84,0,0,1,10,5a9.84,9.84,0,0,1,3.9.78,10,10,0,0,1,5.32,5.32,10.14,10.14,0,0,1,0,7.8,10,10,0,0,1-5.32,5.32A9.84,9.84,0,0,1,10,25Zm0-1.66a8,8,0,0,0,3.24-.66,8.39,8.39,0,0,0,2.66-1.78,8.59,8.59,0,0,0,1.79-2.66,8.4,8.4,0,0,0,0-6.48,8.35,8.35,0,0,0-4.45-4.45,8.4,8.4,0,0,0-6.48,0,8.35,8.35,0,0,0-4.45,4.45,8.4,8.4,0,0,0,0,6.48A8.59,8.59,0,0,0,4.1,20.93a8.39,8.39,0,0,0,2.66,1.78,8,8,0,0,0,3.24.66ZM11,9.85v6.68H9.16V9.85ZM9.16,18.53H11V20.2H9.16Z"/><g class="cls-1"><rect class="cls-2" width="30" height="30"/></g></g></g></svg>