<svg xmlns="http://www.w3.org/2000/svg" viewBox="0 0 30 30"><defs><style>.cls-1{opacity:0.09;}.cls-2{fill:none;}</style></defs><title>Library</title><g id="Layer_2" data-name="Layer 2"><g id="Layer_10" data-name="Layer 10"><path d="M17.48,9.93h2.46V22.61H12.19a3.47,3.47,0,0,1-1,.5,4,4,0,0,1-1.19.18,3.48,3.48,0,0,1-1.13-.18,6.34,6.34,0,0,1-1.06-.5H.06V9.93H2.79v-3h.67a12.22,12.22,0,0,1,2.35,0,12.81,12.81,0,0,1,1.9.37,9.12,9.12,0,0,1,1.46.51c.41.19.73.35,1,.48q.34-.19,1-.48a9.12,9.12,0,0,1,1.46-.51,12.81,12.81,0,0,1,1.9-.37,12.12,12.12,0,0,1,2.34,0h.68ZM19,21.22h-.27v-10H17.36V19h-.68a9.69,9.69,0,0,0-2.6,0,10.56,10.56,0,0,0-1.95.5,9,9,0,0,0-1.66.85l-.41.27-.41-.27A9.86,9.86,0,0,0,8,19.58a11.81,11.81,0,0,0-2-.5A10.83,10.83,0,0,0,3.46,19H2.77V11.18H1.39v10H8.55l.14.14a2.39,2.39,0,0,0,1.58.52,2.4,2.4,0,0,0,1.59-.52l.13-.14ZM4.08,8.13v9.52h.28A11.5,11.5,0,0,1,7.31,18a9.55,9.55,0,0,1,2.05.75V9.52A16,16,0,0,0,7.5,8.67a9.18,9.18,0,0,0-3.42-.54Zm6.66,1.55v9.1A11.52,11.52,0,0,1,12.9,18a12,12,0,0,1,3.1-.35V8.31a9.2,9.2,0,0,0-3.41.54,16.57,16.57,0,0,0-1.85.83Z"/><g class="cls-1"><rect class="cls-2" width="30" height="30"/></g></g></g></svg>