<svg xmlns="http://www.w3.org/2000/svg" viewBox="0 0 30 30"><defs><style>.cls-1{opacity:0.09;}.cls-2{fill:none;}</style></defs><title>Calendar</title><g id="Layer_2" data-name="Layer 2"><g id="Layer_10" data-name="Layer 10"><path d="M19.16,7.55V24.19H1V7.55H6.29V6.79a.67.67,0,0,1,.27-.55A.85.85,0,0,1,7.05,6a.75.75,0,0,1,.56.21.79.79,0,0,1,.2.55v.76h4.55V6.79a.75.75,0,0,1,.21-.55A.72.72,0,0,1,13.11,6a.8.8,0,0,1,.49.21.67.67,0,0,1,.27.55v.76ZM6.29,9.05H2.66v3.64h15V9.05H13.87v.76a.74.74,0,0,1-.21.55.73.73,0,0,1-.55.22.79.79,0,0,1-.56-.22,1.32,1.32,0,0,1-.34-.55V9.05H7.81v.76a.77.77,0,0,1-.2.55.75.75,0,0,1-.56.22.87.87,0,0,1-.49-.22.66.66,0,0,1-.27-.55ZM17.66,22.69V14.21h-15v8.48Z"/><g class="cls-1"><rect class="cls-2" width="30" height="30"/></g></g></g></svg>