<svg xmlns="http://www.w3.org/2000/svg" viewBox="0 0 30 30"><defs><style>.cls-1{opacity:0.09;}.cls-2{fill:none;}</style></defs><title>Email</title><g id="Layer_2" data-name="Layer 2"><g id="Layer_10" data-name="Layer 10"><path d="M19.53,5.5a.84.84,0,0,1,.38.44.86.86,0,0,1-.07.77L15.12,24.54l-5.78-5L5.66,22.86H5.37a.7.7,0,0,1-.16.14.4.4,0,0,1-.15,0H4.77l-.16-.16c-.08,0-.13-.05-.16-.16v-.44l.76-6.41L0,11.14,18.93,5.65a.46.46,0,0,1,.3-.13,1.73,1.73,0,0,1,.3,0Zm-5,16,3.5-14L3.24,11.75l3.05,2.73,7.91-4.41a.7.7,0,0,1,.59-.16,1.16,1.16,0,0,1,.48.31.76.76,0,0,1,.22.54.69.69,0,0,1-.22.52L9.79,17.37ZM8,16.92l2.91-3L6.89,16l-.31,3Z"/><g class="cls-1"><rect class="cls-2" width="30" height="30"/></g></g></g></svg>