<svg xmlns="http://www.w3.org/2000/svg" viewBox="0 0 30 30"><defs><style>.cls-1{opacity:0.09;}.cls-2{fill:none;}</style></defs><title>Line Graph</title><g id="Layer_2" data-name="Layer 2"><g id="Layer_10" data-name="Layer 10"><path d="M3.83,19.52.1,15.17a1.08,1.08,0,0,1-.1-.55.86.86,0,0,1,.26-.55A1.24,1.24,0,0,1,.88,14a1,1,0,0,1,.63.26L3.83,17l6.08-7,3,3.57,5.59-6.54A.73.73,0,0,1,19,6.69a.7.7,0,0,1,.54.21.7.7,0,0,1,.37.55.66.66,0,0,1-.21.55l-6.84,8-3-3.44ZM0,23.51H20V21.85H0Z"/><g class="cls-1"><rect class="cls-2" width="30" height="30"/></g></g></g></svg>