<svg xmlns="http://www.w3.org/2000/svg" viewBox="0 0 30 30"><defs><style>.cls-1{opacity:0.09;}.cls-2{fill:none;}</style></defs><title>Upload</title><g id="Layer_2" data-name="Layer 2"><g id="Layer_10" data-name="Layer 10"><path d="M14.06,10.52a5.94,5.94,0,0,1,2.23.54,6.37,6.37,0,0,1,1.82,1.3,6.26,6.26,0,0,1,1.73,4.19,6.17,6.17,0,0,1-.47,2.39,6.52,6.52,0,0,1-1.3,1.95,6.29,6.29,0,0,1-1.92,1.33,5.76,5.76,0,0,1-2.34.48H4.92A5,5,0,0,1,3,22.23a5.15,5.15,0,0,1-1.56-1.11A5.12,5.12,0,0,1,.39,19.55,4.56,4.56,0,0,1,0,17.69a4.62,4.62,0,0,1,.28-1.63,5.07,5.07,0,0,1,.78-1.38A5.27,5.27,0,0,1,2.24,13.6a5.89,5.89,0,0,1,1.45-.7,6,6,0,0,1,.56-2.08,5.44,5.44,0,0,1,1.2-1.67,5.52,5.52,0,0,1,3.79-1.5,5.23,5.23,0,0,1,2.83.78,5.78,5.78,0,0,1,2,2.09Zm-.25,10.92a5.14,5.14,0,0,0,1.84-.34,4.61,4.61,0,0,0,1.53-.94,4.72,4.72,0,0,0,1-1.47,4.45,4.45,0,0,0,.39-1.88,4.84,4.84,0,0,0-.39-1.94,4.88,4.88,0,0,0-2.57-2.59,4.59,4.59,0,0,0-1.84-.38h-.63a2.16,2.16,0,0,0-.25-.67l-.35-.58a3.12,3.12,0,0,0-1.35-1.29,4.2,4.2,0,0,0-2-.46,3.87,3.87,0,0,0-1.82.41,4.26,4.26,0,0,0-1.36,1.1A5.11,5.11,0,0,0,5.21,12a6.36,6.36,0,0,0-.29,1.91,3.81,3.81,0,0,0-2.63,1.22,3.65,3.65,0,0,0-1.06,2.55,3.18,3.18,0,0,0,.58,2,4.2,4.2,0,0,0,1.27,1.13,6.18,6.18,0,0,0,1.84.61ZM6.66,15.3l3.2-3.4,3.21,3.4-.86.88-1.74-1.89v5.39H9.24V14.29L7.52,16.18Z"/><g class="cls-1"><rect class="cls-2" width="30" height="30"/></g></g></g></svg>