<svg xmlns="http://www.w3.org/2000/svg" viewBox="0 0 30 30"><defs><style>.cls-1{opacity:0.09;}.cls-2{fill:none;}</style></defs><title>Warning Folder</title><g id="Layer_2" data-name="Layer 2"><g id="Layer_10" data-name="Layer 10"><path d="M16.35,14a6.11,6.11,0,0,1,1.43.82A5.5,5.5,0,0,1,18.91,16a5.7,5.7,0,0,1,.73,1.46,5.57,5.57,0,0,1,.26,1.68,5.31,5.31,0,0,1-.43,2.14A5.4,5.4,0,0,1,18.29,23a5.76,5.76,0,0,1-1.76,1.17,5.31,5.31,0,0,1-2.14.43,5.4,5.4,0,0,1-3.25-1.07A5.7,5.7,0,0,1,10,22.31a5.32,5.32,0,0,1-.78-1.54H.1V5.48H6.68l.68,1.35h9ZM8.93,19.44c0-.05,0-.1,0-.16a1,1,0,0,1,0-.17,5.52,5.52,0,0,1,1.6-3.89A5.8,5.8,0,0,1,12.26,14a5.31,5.31,0,0,1,2.13-.44,1.73,1.73,0,0,1,.32,0,1.63,1.63,0,0,0,.31,0V11H7.93L5.86,6.81H1.43V19.44ZM8,8.15,8.75,9.6H15V8.15Zm6.36,15.12A4.23,4.23,0,0,0,16,23a4.15,4.15,0,0,0,1.32-.89,4.22,4.22,0,0,0,.9-1.33,4,4,0,0,0,.33-1.62A3.92,3.92,0,0,0,18,16.94a4.33,4.33,0,0,0-1.6-1.5,5.24,5.24,0,0,0-.65-.27A3.2,3.2,0,0,0,15,15a1.7,1.7,0,0,0-.31-.06l-.32,0a4,4,0,0,0-1.62.33,4.31,4.31,0,0,0-1.31.9,4.2,4.2,0,0,0-.89,1.33,3.89,3.89,0,0,0-.34,1.62c0,.05,0,.11,0,.17l0,.16a5,5,0,0,0,.1.69,3,3,0,0,0,.22.64,4.15,4.15,0,0,0,1.51,1.81,4,4,0,0,0,2.29.69Zm-.66-1.44h1.33V20.44H13.73Zm0-2.39H15v-3H13.75Z"/><g class="cls-1"><rect class="cls-2" width="30" height="30"/></g></g></g></svg>