<svg xmlns="http://www.w3.org/2000/svg" viewBox="0 0 30 30"><defs><style>.cls-1{opacity:0.09;}.cls-2{fill:none;}</style></defs><title>People</title><g id="Layer_2" data-name="Layer 2"><g id="Layer_10" data-name="Layer 10"><path d="M13.55,17,2.83,16.9a1.39,1.39,0,0,0-1.06.46,1.5,1.5,0,0,0-.42,1v2.34H.12V18.39a2.54,2.54,0,0,1,.74-1.87,2.49,2.49,0,0,1,1.85-.75h8.38a3.67,3.67,0,0,1-.45-.83,3.12,3.12,0,0,1,.73-3.21,3.1,3.1,0,0,1,4.37,0,3.13,3.13,0,0,1,0,4.39,3,3,0,0,1-2.19.9ZM5.18,15a2.64,2.64,0,0,1-2-.88,3.09,3.09,0,0,1,0-4.17,2.65,2.65,0,0,1,2-.89A2.84,2.84,0,0,1,7.25,10a2.93,2.93,0,0,1,0,4.17A2.83,2.83,0,0,1,5.18,15Zm0-4.69a1.77,1.77,0,0,0-1.2.49,1.6,1.6,0,0,0-.54,1.23,1.64,1.64,0,0,0,.5,1.24,1.68,1.68,0,0,0,1.24.5,1.67,1.67,0,0,0,1.23-.5,1.83,1.83,0,0,0,0-2.47,1.67,1.67,0,0,0-1.23-.49ZM17,18a2.52,2.52,0,0,1,1.89.8,3.43,3.43,0,0,1,.94,1.91V24H18.61V20.73a1.36,1.36,0,0,0-.46-1.06,1.46,1.46,0,0,0-1-.42h-7A1.36,1.36,0,0,0,9,19.71a1.49,1.49,0,0,0-.41,1V24H7.38V20.62a2.58,2.58,0,0,1,.74-1.82A2.48,2.48,0,0,1,10,18Zm-5.31-4a1.74,1.74,0,0,0,.56,1.3,1.86,1.86,0,0,0,3.15-1.3,1.8,1.8,0,0,0-.56-1.3,1.86,1.86,0,0,0-3.15,1.3Z"/><g class="cls-1"><rect class="cls-2" width="30" height="30"/></g></g></g></svg>