<svg xmlns="http://www.w3.org/2000/svg" viewBox="0 0 30 30"><defs><style>.cls-1{opacity:0.09;}.cls-2{fill:none;}</style></defs><title>Dolly</title><g id="Layer_2" data-name="Layer 2"><g id="Layer_10" data-name="Layer 10"><path d="M11.09,21.73a2,2,0,0,1,.1,1.8,1.49,1.49,0,0,1-1.19,1,2.2,2.2,0,0,1-1.71,0,2.07,2.07,0,0,1-1.24-1.25,2.27,2.27,0,0,1,0-1.72,2.06,2.06,0,0,1,1.25-1.25h.16L3.16,7,1,7.88.35,6.49,4,5.09,10,20.48l9-3.58.63,1.41Zm3.42-11.66L8.59,12.39,6.89,8l5.9-2.33ZM8.91,9l.62,1.41,3-1.25-.6-1.41Zm.31,5,7.3-2.79,1.72,4.34-7.3,2.81Zm2,.94.63,1.39,4.33-1.7-.6-1.41Z"/><g class="cls-1"><rect class="cls-2" width="30" height="30"/></g></g></g></svg>