<svg xmlns="http://www.w3.org/2000/svg" viewBox="0 0 30 30"><defs><style>.cls-1{opacity:0.09;}.cls-2{fill:none;}</style></defs><title>Microphone</title><g id="Layer_2" data-name="Layer 2"><g id="Layer_10" data-name="Layer 10"><path d="M16.09,15.67a5.62,5.62,0,0,1-.41,2.17,5.78,5.78,0,0,1-1.14,1.81,5.93,5.93,0,0,1-1.72,1.29,6.35,6.35,0,0,1-2.12.63v2.07h2.72a.62.62,0,0,1,.46.19.6.6,0,0,1,.18.44.62.62,0,0,1-.64.64H6.68a.63.63,0,0,1-.46-.18A.65.65,0,0,1,6,24.27a.63.63,0,0,1,.64-.63H9.41V21.57a6.34,6.34,0,0,1-2.13-.63,5.76,5.76,0,0,1-1.71-1.29,6,6,0,0,1-1.15-1.81A5.63,5.63,0,0,1,4,15.67a.63.63,0,0,1,.65-.62.65.65,0,0,1,.46.18.62.62,0,0,1,.18.44A4.57,4.57,0,0,0,6.68,19a4.76,4.76,0,0,0,1.51,1,4.66,4.66,0,0,0,1.87.37A4.58,4.58,0,0,0,11.9,20a4.81,4.81,0,0,0,1.52-1,4.61,4.61,0,0,0,1.38-3.31.6.6,0,0,1,.2-.44.67.67,0,0,1,.91,0,.62.62,0,0,1,.18.44Zm-6,3.93a4,4,0,0,1-1.54-.3,4.11,4.11,0,0,1-1.27-.83,3.66,3.66,0,0,1-.85-1.24,3.72,3.72,0,0,1-.31-1.52V9.07A3.68,3.68,0,0,1,6.4,7.56a3.56,3.56,0,0,1,.85-1.24,4.13,4.13,0,0,1,1.27-.84,4,4,0,0,1,3.08,0,4.21,4.21,0,0,1,1.26.84,3.86,3.86,0,0,1,.85,1.24A3.68,3.68,0,0,1,14,9.07v6.64a3.72,3.72,0,0,1-.31,1.52,4,4,0,0,1-.85,1.24,4.18,4.18,0,0,1-1.26.83,4,4,0,0,1-1.54.3ZM7.38,14.27h5.35V9.07a2.51,2.51,0,0,0-.79-1.85,2.57,2.57,0,0,0-1.88-.78,2.6,2.6,0,0,0-1.9.78,2.53,2.53,0,0,0-.78,1.85Zm0,1.27v.17a2.52,2.52,0,0,0,.78,1.85,2.63,2.63,0,0,0,1.9.77,2.6,2.6,0,0,0,1.88-.77,2.49,2.49,0,0,0,.79-1.85v-.17ZM9.22,9.2A.68.68,0,0,0,8.75,9a.64.64,0,0,0-.46.19.63.63,0,0,0-.18.46.65.65,0,0,0,.18.46.63.63,0,0,0,.46.18.67.67,0,0,0,.47-.18.62.62,0,0,0,.19-.46A.6.6,0,0,0,9.22,9.2Zm0,3.35a.65.65,0,0,0-.47-.2.61.61,0,0,0-.46.2.67.67,0,0,0,0,.91.63.63,0,0,0,.46.18.67.67,0,0,0,.47-.18A.62.62,0,0,0,9.41,13,.61.61,0,0,0,9.22,12.55Zm1.3-5a.63.63,0,0,0-.46-.2.65.65,0,0,0-.47.2.62.62,0,0,0,0,.91.67.67,0,0,0,.47.18.64.64,0,0,0,.46-1.09Zm0,3.33a.66.66,0,0,0-.46-.19.68.68,0,0,0-.47.19.61.61,0,0,0-.2.46.62.62,0,0,0,.2.45.64.64,0,0,0,.47.19.62.62,0,0,0,.46-.19.64.64,0,0,0,.18-.45A.63.63,0,0,0,10.52,10.88Zm1.3-1.68A.68.68,0,0,0,11.35,9a.64.64,0,0,0-.46.19.6.6,0,0,0-.19.46.62.62,0,0,0,.19.46.63.63,0,0,0,.46.18.67.67,0,0,0,.47-.18A.62.62,0,0,0,12,9.66.6.6,0,0,0,11.82,9.2Zm0,3.35a.65.65,0,0,0-.47-.2.67.67,0,0,0-.65.65.62.62,0,0,0,.19.46.63.63,0,0,0,.46.18.67.67,0,0,0,.47-.18A.62.62,0,0,0,12,13,.61.61,0,0,0,11.82,12.55Z"/><g class="cls-1"><rect class="cls-2" width="30" height="30"/></g></g></g></svg>