<svg xmlns="http://www.w3.org/2000/svg" viewBox="0 0 30 30"><defs><style>.cls-1{opacity:0.09;}.cls-2{fill:none;}</style></defs><title>Hub</title><g id="Layer_2" data-name="Layer 2"><g id="Layer_10" data-name="Layer 10"><path d="M18,14a2.67,2.67,0,0,1,1.87,3.29,2.51,2.51,0,0,1-1,1.44,2.61,2.61,0,0,1-1.61.55,2.19,2.19,0,0,1-.36,0l-.35-.07a2.55,2.55,0,0,1-1.47-1,2.71,2.71,0,0,1-.5-1.7l-2.05-.57a2.58,2.58,0,0,1-.68.75A2.9,2.9,0,0,1,11,17l.13,2.07a2.65,2.65,0,0,1,1.55.82,2.55,2.55,0,0,1,.7,1.64,2.64,2.64,0,0,1-2.48,2.85h-.18A2.67,2.67,0,0,1,8.5,20.2a2.54,2.54,0,0,1,1.44-1L9.8,17.08l-.12,0-.13,0a2.57,2.57,0,0,1-1.17-.69A2.71,2.71,0,0,1,7.7,15.2l-2.31.26a2.63,2.63,0,0,1-.75,1.59A2.51,2.51,0,0,1,3,17.82h-.3A2.58,2.58,0,0,1,1,17.16a2.64,2.64,0,0,1-.88-1.72,2.58,2.58,0,0,1,.57-2,2.58,2.58,0,0,1,1.79-1l.15,0h.14A2.61,2.61,0,0,1,4.3,13a2.59,2.59,0,0,1,1,1.33l2.37-.26a.76.76,0,0,1,0-.15.41.41,0,0,1,0-.16,2.66,2.66,0,0,1,.26-.6,3.22,3.22,0,0,1,.38-.51l-.8-1.41a2.22,2.22,0,0,1-.37.09l-.37,0A2.76,2.76,0,0,1,5.44,11a2.67,2.67,0,0,1-1-1,2.69,2.69,0,0,1,1-3.65,2.73,2.73,0,0,1,.64-.27A3.14,3.14,0,0,1,6.76,6a2.7,2.7,0,0,1,1.34.36,2.65,2.65,0,0,1,1,1,2.61,2.61,0,0,1,.3,1.77,2.64,2.64,0,0,1-.86,1.55L9.28,12l.48-.13a2,2,0,0,1,.49-.06l.37,0,.36.07.34.12a1.46,1.46,0,0,1,.3.17l2-2.13a2.74,2.74,0,0,1-.45-1.7,2.53,2.53,0,0,1,.69-1.64A2.57,2.57,0,0,1,14.72,6a2.79,2.79,0,0,1,1.06-.22,2.64,2.64,0,0,1,1,.18,2.37,2.37,0,0,1,.84.54,2.64,2.64,0,0,1,.87,1.86,2.59,2.59,0,0,1-.7,1.93,2.76,2.76,0,0,1-.92.65,2.81,2.81,0,0,1-1,.21,2.35,2.35,0,0,1-.69-.1,2.7,2.7,0,0,1-.66-.27l-2,2.15a2.49,2.49,0,0,1,.39.84,2.57,2.57,0,0,1,.06,1l2,.54a2.68,2.68,0,0,1,1-1,2.56,2.56,0,0,1,1.38-.38,2.11,2.11,0,0,1,.35,0A2.41,2.41,0,0,1,18,14ZM2.89,16.67a1.41,1.41,0,0,0,1-.56A1.51,1.51,0,0,0,4.26,15a1.54,1.54,0,0,0-.51-1,1.48,1.48,0,0,0-1-.39H2.66l-.1,0a1.4,1.4,0,0,0-.56.17,1.67,1.67,0,0,0-.46.38,1.52,1.52,0,0,0-.27.54,1.91,1.91,0,0,0-.06.59,1.54,1.54,0,0,0,.51,1,1.45,1.45,0,0,0,1,.39h.16Zm5.35-7.6a1.46,1.46,0,0,0,0-.59,1.62,1.62,0,0,0-.17-.58,1.94,1.94,0,0,0-.57-.57,1.52,1.52,0,0,0-.78-.21,1.58,1.58,0,0,0-.38,0A1.42,1.42,0,0,0,6,7.31a1.47,1.47,0,0,0-.72.93A1.52,1.52,0,0,0,6,10a1.47,1.47,0,0,0,.78.21,1.65,1.65,0,0,0,.38,0A1.84,1.84,0,0,0,7.52,10,1.49,1.49,0,0,0,8,9.6a1.68,1.68,0,0,0,.28-.53Zm3.5,5.78a1.67,1.67,0,0,0,0-.59,1.72,1.72,0,0,0-.58-1,1.5,1.5,0,0,0-.54-.26l-.19,0-.22,0a1.52,1.52,0,0,0-1.46,1.13A1.48,1.48,0,0,0,9,15.21a1.4,1.4,0,0,0,.91.72l.2.05h.21a1.55,1.55,0,0,0,1.47-1.14Zm.47,6.8a1.53,1.53,0,0,0-.48-1,1.49,1.49,0,0,0-1.05-.41h-.09a1.47,1.47,0,0,0-1.06.52,1.53,1.53,0,0,0,.11,2.12,1.48,1.48,0,0,0,1,.41h.1a1.44,1.44,0,0,0,1.05-.52,1.49,1.49,0,0,0,.38-1.1ZM14.65,7.47a1.44,1.44,0,0,0-.4,1.09,1.46,1.46,0,0,0,.5,1.06,1.52,1.52,0,0,0,1,.41,1.46,1.46,0,0,0,.61-.13,1.36,1.36,0,0,0,.5-.36,1.45,1.45,0,0,0,.4-1.1,1.47,1.47,0,0,0-.47-1.07,1.66,1.66,0,0,0-.49-.3A1.54,1.54,0,0,0,15.78,7a1.6,1.6,0,0,0-.62.13,1.27,1.27,0,0,0-.51.38ZM18.73,17a1.67,1.67,0,0,0,.05-.59,1.37,1.37,0,0,0-.19-.58,1.63,1.63,0,0,0-.39-.44,1.41,1.41,0,0,0-.52-.26.8.8,0,0,0-.21-.05h-.2a1.46,1.46,0,0,0-.92.31,1.48,1.48,0,0,0-.55.8,1.45,1.45,0,0,0,.14,1.17,1.5,1.5,0,0,0,.92.73l.21,0h.2a1.46,1.46,0,0,0,.91-.32,1.41,1.41,0,0,0,.55-.8Z"/><g class="cls-1"><rect class="cls-2" width="30" height="30"/></g></g></g></svg>