<svg xmlns="http://www.w3.org/2000/svg" viewBox="0 0 30 30"><defs><style>.cls-1{opacity:0.09;}.cls-2{fill:none;}</style></defs><title>Settings</title><g id="Layer_2" data-name="Layer 2"><g id="Layer_10" data-name="Layer 10"><path d="M16.11,15.5h-.27a5.07,5.07,0,0,0-.68,0,4.93,4.93,0,0,0-.67.11V12.53a4,4,0,0,0-.35-1.68,4.55,4.55,0,0,0-1-1.41,4.89,4.89,0,0,0-1.41-1,4.09,4.09,0,0,0-1.68-.36,4.17,4.17,0,0,0-1.68.34A4.47,4.47,0,0,0,7,9.38a4.59,4.59,0,0,0-1,1.4,4.1,4.1,0,0,0-.37,1.75v5.16L3.91,20.48h6.56v.39c0,.18,0,.36,0,.54a3.4,3.4,0,0,0,.08.53H8.16A1.61,1.61,0,0,0,8.85,23a2.15,2.15,0,0,0,1.23.4,2.59,2.59,0,0,0,.47-.05,1.66,1.66,0,0,0,.45-.17,3.62,3.62,0,0,0,.42.74,7.93,7.93,0,0,0,.53.65,3.91,3.91,0,0,1-.82.33,3.26,3.26,0,0,1-.9.12,3.38,3.38,0,0,1-2.32-.88A3.64,3.64,0,0,1,6.7,21.94H1.54a.2.2,0,0,1-.18-.09c-.05-.07,0-.13,0-.2L4.2,17.24V12.53a5.84,5.84,0,0,1,.31-1.91A6.28,6.28,0,0,1,5.37,9a6,6,0,0,1,3-2.16A1.71,1.71,0,0,1,10.08,5a1.61,1.61,0,0,1,1.28.56,1.78,1.78,0,0,1,.5,1.2A6.16,6.16,0,0,1,14.92,9a5.92,5.92,0,0,1,1.19,3.58Zm2.78,5.95a1.39,1.39,0,0,1-.15.58,4.86,4.86,0,0,1-.32.6l.7.7-.82.82-.7-.7a3.57,3.57,0,0,1-.55.28,5.78,5.78,0,0,1-.62.19v.93H15.25v-.93a1.39,1.39,0,0,1-.59-.15,5.57,5.57,0,0,1-.6-.32l-.7.7-.82-.82.7-.7a2.53,2.53,0,0,1-.27-.55c-.07-.18-.13-.39-.2-.63h-.93V20.28h.93a1.39,1.39,0,0,1,.15-.59,4.23,4.23,0,0,1,.32-.6l-.7-.7.82-.82.7.7a2.33,2.33,0,0,1,.55-.27c.18-.07.4-.13.64-.2v-.93h1.18v.93A1.38,1.38,0,0,1,17,18a4.23,4.23,0,0,1,.6.32l.7-.7.82.82-.7.7a2.86,2.86,0,0,1,.28.55,5.56,5.56,0,0,1,.19.64h.93v1.17Zm-3.05,1.41a2,2,0,0,0,1.39-.56,1.86,1.86,0,0,0,.6-1.43,2,2,0,0,0-.6-1.41,1.94,1.94,0,0,0-1.39-.6,2,2,0,0,0-2,2,1.94,1.94,0,0,0,.6,1.39,2,2,0,0,0,1.41.6Z"/><g class="cls-1"><rect class="cls-2" width="30" height="30"/></g></g></g></svg>