<svg xmlns="http://www.w3.org/2000/svg" viewBox="0 0 30 30"><defs><style>.cls-1{opacity:0.09;}.cls-2{fill:none;}</style></defs><title>Clipboard</title><g id="Layer_2" data-name="Layer 2"><g id="Layer_10" data-name="Layer 10"><path d="M15.7,11.51l3.21,3.3V24.89H6.29V22.94H1.88a.7.7,0,0,1-.54-.21.69.69,0,0,1-.21-.53V8a.73.73,0,0,1,.21-.54.7.7,0,0,1,.54-.21h4a2.76,2.76,0,0,1,.94-1.5,2.5,2.5,0,0,1,1.64-.6,2.47,2.47,0,0,1,1.63.6A3,3,0,0,1,11,7.29h3.94a.75.75,0,0,1,.56.21.77.77,0,0,1,.2.54ZM2.79,21.44H6.45V11.65H4.32V8.8H2.79ZM5.84,9v1.2h5.31V9a1.89,1.89,0,0,1-.53-.09,3.54,3.54,0,0,1-.54-.22l-.61-.15V7.9A1,1,0,0,0,8.42,6.85a1,1,0,0,0-.76.3,1,1,0,0,0-.32.75v.59ZM17.38,23.39h.16V16.47H12.68v-.6H9.79V14.21h2.73V11.65H8V23.39ZM9.79,18.58h5.78V16.92H9.79Zm0,2.7h5.78V19.64H9.79ZM12.52,8.8V10H14V8.8Zm1.68,6h2.58L14.2,12.26Z"/><g class="cls-1"><rect class="cls-2" width="30" height="30"/></g></g></g></svg>