<svg xmlns="http://www.w3.org/2000/svg" viewBox="0 0 30 30"><defs><style>.cls-1{opacity:0.09;}.cls-2{fill:none;}</style></defs><title>Drug</title><g id="Layer_2" data-name="Layer 2"><g id="Layer_10" data-name="Layer 10"><path d="M19.3,5.6a1.6,1.6,0,0,1,0,2.32L17,10.26v5.36a6.22,6.22,0,0,1-.5,2.49A6.46,6.46,0,0,1,13,21.59a6.31,6.31,0,0,1-2.56.53H6.8a6.49,6.49,0,0,1-4.56-1.88A6.41,6.41,0,0,1,.82,18.17a6.23,6.23,0,0,1-.53-2.55V10.26h12L17,5.6a1.59,1.59,0,0,1,2.33,0Zm-3.83,10V11.94H2v3.68a4.74,4.74,0,0,0,.38,1.87,5,5,0,0,0,1,1.54,4.8,4.8,0,0,0,1.53,1,4.75,4.75,0,0,0,1.88.38h3.67a4.7,4.7,0,0,0,1.87-.38,4.84,4.84,0,0,0,1.54-1,5,5,0,0,0,1-1.54,4.57,4.57,0,0,0,.38-1.87Zm-12,7.67V25H13.63V23.29Zm4.31-4V17.12H5.64V15.44H7.79V13.27H9.47v2.17h2.17v1.68H9.47v2.17Z"/><g class="cls-1"><rect class="cls-2" width="30" height="30"/></g></g></g></svg>