<?xml version="1.0" encoding="utf-8"?>
<!-- Generator: Adobe Illustrator 16.0.4, SVG Export Plug-In . SVG Version: 6.00 Build 0)  -->
<!DOCTYPE svg PUBLIC "-//W3C//DTD SVG 1.1//EN" "http://www.w3.org/Graphics/SVG/1.1/DTD/svg11.dtd">
<svg version="1.1" id="Layer_1" xmlns="http://www.w3.org/2000/svg" xmlns:xlink="http://www.w3.org/1999/xlink" x="0px" y="0px"
	 width="292.5px" height="219.5px" viewBox="0 68.5 292.5 219.5" enable-background="new 0 68.5 292.5 219.5" xml:space="preserve">
<path fill="#FFFFFF" stroke="#FFFFFF" stroke-miterlimit="10" d="M44.368,212.1c-2.131-2.074-3.873-4.517-5.142-7.206
	c-1.216-2.734-1.812-5.702-1.744-8.693l0.33-51.794l12.431-3.432c7.744-2.018,15.418-3.696,23.025-5.035
	c7.742-1.339,15.348-2.542,23.361-3.744c8.013-1.203,15.346-1.728,23.221-1.98c7.874-0.252,15.682-0.573,23.555-0.689
	c7.875-0.116,15.274,0.513,23.146,1.211c7.873,0.698,15.813,1.328,23.481,2.364c7.668,1.037,15.607,2.075,23.342,3.859
	c7.734,1.784,15.131,2.956,22.526,4.67l12.279,3.085l-0.127,51.998c0.053,2.684-0.298,5.358-1.038,7.939
	c-0.673,2.213-1.866,4.235-3.476,5.897c-2.244,2.233-5.032,3.841-8.09,4.664c-3.271,0.942-6.753,0.862-9.978-0.229
	c-7.259-1.714-14.518-3.156-21.576-4.396c-7.057-1.239-14.724-2.685-22.527-3.857c-4.279-0.661-8.176-2.84-10.983-6.136
	c-3.112-3.182-4.876-7.442-4.925-11.891l-0.057-4.685c-3.936-0.553-7.668-0.9-11.266-1.114l-11.333-1.045
	c-3.969,0.396-7.961,0.523-11.948,0.378c-3.921-0.193-7.851-0.045-11.745,0.446l-0.215,4.683c0.112,2.283-0.386,4.555-1.442,6.582
	c-1.002,2.172-2.387,4.145-4.087,5.828c-1.247,1.419-2.588,2.756-4.015,3.994c-1.708,1.33-3.815,2.04-5.979,2.022
	c-7.335,1.612-14.67,2.951-21.936,3.952c-7.22,0.844-14.34,2.396-21.259,4.633c-2.661,1.562-5.823,2.041-8.827,1.334
	C48.727,215.201,46.303,213.946,44.368,212.1z M54.654,197.396c0.492,0.696,0.404,1.646-0.208,2.239
	c7.131-2.293,14.417-4.065,21.803-5.309c7.742-1.34,15.821-2.202,23.563-3.541l2.314-2.304l-0.018-20.432l20.776-1.578
	c6.45-0.459,13.035-0.512,19.958-0.494c6.615-0.104,13.231,0.138,19.82,0.727c6.379,0.56,12.961,1.458,19.815,2.628l0.154,20.569
	l1.083,1.088c7.871,1.197,15.516,2.618,22.933,4.265c7.463,1.647,14.858,3.228,22.186,5.01l2.245-2.234l0.095-38.828
	c-7.055-1.918-14.246-3.7-21.777-5.416c-7.53-1.715-14.452-2.818-21.78-3.786c-7.33-0.97-15.067-1.531-22.329-2.16
	c-7.396-0.373-14.807-0.322-22.198,0.149c-7.604,0.163-15.207,0.552-22.812,1.167c-7.603,0.524-15.004,1.39-22.542,2.116
	c-7.536,0.729-14.735,1.933-21.933,3.273c-7.2,1.34-14.262,2.681-20.987,4.361L54.654,197.396z"/>
</svg>
