<svg xmlns="http://www.w3.org/2000/svg" viewBox="0 0 30 30"><defs><style>.cls-1{opacity:0.09;}.cls-2{fill:none;}</style></defs><title>Pill</title><g id="Layer_2" data-name="Layer 2"><g id="Layer_10" data-name="Layer 10"><path d="M5.53,11.77l7.56,7.73L9.14,23.45a5.42,5.42,0,0,1-7.56,0A5.92,5.92,0,0,1,0,19.51a5.51,5.51,0,0,1,.39-2,5.25,5.25,0,0,1,1.15-1.77ZM18.42,6.61A5.92,5.92,0,0,1,20,10.55a5.51,5.51,0,0,1-.39,2,5.35,5.35,0,0,1-1.15,1.77l-4,3.94L6.74,10.56l3.94-3.95a5.07,5.07,0,0,1,1.86-1.15,6.11,6.11,0,0,1,2.09-.39,5.45,5.45,0,0,1,2,.39,5.25,5.25,0,0,1,1.77,1.15Zm-1.21,6.52A2.92,2.92,0,0,0,18,11.89a3.12,3.12,0,0,0,.1-1.49A3.87,3.87,0,0,0,17.81,9,3.26,3.26,0,0,0,17,7.82,3.26,3.26,0,0,0,15.88,7a4.13,4.13,0,0,0-2.83,0,3.3,3.3,0,0,0-1.16.78L9.14,10.56l5.33,5.33Z"/><g class="cls-1"><rect class="cls-2" width="30" height="30"/></g></g></g></svg>