<svg xmlns="http://www.w3.org/2000/svg" viewBox="0 0 30 30"><defs><style>.cls-1{opacity:0.09;}.cls-2{fill:none;}</style></defs><title>Stethoscope</title><g id="Layer_2" data-name="Layer 2"><g id="Layer_10" data-name="Layer 10"><path d="M20,14.7a3,3,0,0,1-.75,2,3.39,3.39,0,0,1-1.75,1.14V20.2a4.23,4.23,0,0,1-.32,1.63,4.15,4.15,0,0,1-.89,1.32,4.21,4.21,0,0,1-2.95,1.22H9.49a4.21,4.21,0,0,1-2.95-1.22,4.32,4.32,0,0,1-.89-1.32,4.23,4.23,0,0,1-.32-1.63V17.53a2.66,2.66,0,0,1-1.1-.48,2.46,2.46,0,0,1-.73-.85l-3-5.33A2.23,2.23,0,0,1,0,9.42,2.74,2.74,0,0,1,.51,7.86a3.07,3.07,0,0,1,.89-1,3,3,0,0,1,1.28-.51,2.21,2.21,0,0,1,.52-.6A1.31,1.31,0,0,1,4,5.54,1.46,1.46,0,0,1,5.07,6a1.4,1.4,0,0,1,.44,1,1.48,1.48,0,0,1-.44,1.07A1.46,1.46,0,0,1,4,8.53a2.17,2.17,0,0,1-.71-.13A.83.83,0,0,1,2.83,8a.71.71,0,0,0-.55.2l-.44.46a1.31,1.31,0,0,0-.14.67,1.29,1.29,0,0,0,.14.66L5,15.54a1.19,1.19,0,0,0,1.25.68,1.47,1.47,0,0,0,1.25-.68l3-5.34a1.52,1.52,0,0,0,.23-.76,1.45,1.45,0,0,0-.23-.74,1.65,1.65,0,0,0-.29-.4A1.26,1.26,0,0,0,9.82,8a1.92,1.92,0,0,1-.5.36,1.64,1.64,0,0,1-.65.13,1.46,1.46,0,0,1-1.06-.44A1.44,1.44,0,0,1,7.17,7a1.37,1.37,0,0,1,.44-1,1.45,1.45,0,0,1,1.06-.43,1.36,1.36,0,0,1,.78.2A4.06,4.06,0,0,1,10,6.2a2.65,2.65,0,0,1,1.12.5,3.42,3.42,0,0,1,.87,1,3.36,3.36,0,0,1,.39,1.58A3.46,3.46,0,0,1,12,10.87L9,16.2a3.19,3.19,0,0,1-.88,1A3,3,0,0,1,7,17.7v2.66a2.39,2.39,0,0,0,.75,1.75,2.43,2.43,0,0,0,1.75.75h3.67a2.56,2.56,0,0,0,2.5-2.5V18a3.39,3.39,0,0,1-1.88-1.17A3.26,3.26,0,0,1,13,14.7a3.4,3.4,0,0,1,3.49-3.5A3.27,3.27,0,0,1,19,12.27a3.44,3.44,0,0,1,1,2.43Zm-3.5,1.66a2,2,0,0,0,1.29-.46,1.49,1.49,0,0,0,.55-1.2,2,2,0,0,0-.55-1.37,1.65,1.65,0,0,0-1.29-.63,1.84,1.84,0,0,0-1.83,1.82,1.77,1.77,0,0,0,.54,1.3,1.74,1.74,0,0,0,1.29.54Z"/><g class="cls-1"><rect class="cls-2" width="30" height="30"/></g></g></g></svg>