<svg xmlns="http://www.w3.org/2000/svg" viewBox="0 0 30 30"><defs><style>.cls-1{opacity:0.09;}.cls-2{fill:none;}</style></defs><title></title><g id="Layer_2" data-name="Layer 2"><g id="Layer_10" data-name="Layer 10"><path d="M17.77,7.69a2.14,2.14,0,0,1,1.58.65A2.17,2.17,0,0,1,20,9.91V20.32a2.12,2.12,0,0,1-.65,1.55,2.15,2.15,0,0,1-1.58.66H2.23a2.15,2.15,0,0,1-1.58-.66A2.12,2.12,0,0,1,0,20.32V9.91A2.17,2.17,0,0,1,.65,8.34a2.14,2.14,0,0,1,1.58-.65ZM2.66,21H3V9.23H2.66a1.06,1.06,0,0,0-.77.28,1,1,0,0,0-.29.75V20a1,1,0,0,0,.29.75,1.06,1.06,0,0,0,.77.29Zm1.83,0h11V9.23h-11ZM18.4,10.26a1,1,0,0,0-.29-.75,1.06,1.06,0,0,0-.77-.28H17V21h.31a1.06,1.06,0,0,0,.77-.29A1,1,0,0,0,18.4,20Z"/><g class="cls-1"><rect class="cls-2" width="30" height="30"/></g></g></g></svg>