<svg xmlns="http://www.w3.org/2000/svg" viewBox="0 0 30 30"><defs><style>.cls-1{opacity:0.09;}.cls-2{fill:none;}</style></defs><title>Person Check</title><g id="Layer_2" data-name="Layer 2"><g id="Layer_10" data-name="Layer 10"><path d="M18.46,21.69H17.05V17.86a2,2,0,0,0-.61-1.48A2,2,0,0,0,15,15.77H5.16a2,2,0,0,0-1.48.61,2,2,0,0,0-.61,1.48v3.83H1.66V17.86a3.35,3.35,0,0,1,1-2.47,3.39,3.39,0,0,1,2.49-1H15a3.5,3.5,0,0,1,3.5,3.49ZM10,13a3.93,3.93,0,0,1-1.57-.32,3.83,3.83,0,0,1-1.27-.85,4.08,4.08,0,0,1-.85-4.41A3.93,3.93,0,0,1,8.43,5.34a4.13,4.13,0,0,1,3.14,0,3.93,3.93,0,0,1,2.12,2.12A3.93,3.93,0,0,1,14,9a3.94,3.94,0,0,1-1.16,2.84,3.83,3.83,0,0,1-1.27.85A3.93,3.93,0,0,1,10,13ZM10,23.1l5-5,.94.95L10,25,6.66,21.63l1-.94ZM10,6.36a2.7,2.7,0,0,0-1.88.73A2.53,2.53,0,0,0,7.32,9,2.5,2.5,0,0,0,8.12,11a2.7,2.7,0,0,0,1.88.73,2.6,2.6,0,0,0,1.88-.8,2.57,2.57,0,0,0,0-3.73A2.56,2.56,0,0,0,10,6.36Z"/><g class="cls-1"><rect class="cls-2" width="30" height="30"/></g></g></g></svg>