<svg xmlns="http://www.w3.org/2000/svg" viewBox="0 0 30 30"><defs><style>.cls-1{opacity:0.09;}.cls-2{fill:none;}</style></defs><title>Video</title><g id="Layer_2" data-name="Layer 2"><g id="Layer_10" data-name="Layer 10"><path d="M10.31,8.82A2.22,2.22,0,0,1,12,9.54a2.46,2.46,0,0,1,.71,1.78v.62L20,9.13V21l-7.19-2.82V19a2.46,2.46,0,0,1-2.5,2.5H2.66a2.41,2.41,0,0,1-1.78-.72A2.41,2.41,0,0,1,.16,19V11.32a2.46,2.46,0,0,1,2.5-2.5ZM2.66,10.38a.92.92,0,0,0-.65.29.92.92,0,0,0-.29.65V18.8a.9.9,0,0,0,.29.64.9.9,0,0,0,.65.3h7.65a1,1,0,0,0,.94-.94v-3l7.19,2.81V11.47l-7.19,2.82v-3a1,1,0,0,0-.94-.94Z"/><g class="cls-1"><rect class="cls-2" width="30" height="30"/></g></g></g></svg>
