<?xml version="1.0" encoding="utf-8"?>
<!-- Generator: Adobe Illustrator 16.0.4, SVG Export Plug-In . SVG Version: 6.00 Build 0)  -->
<!DOCTYPE svg PUBLIC "-//W3C//DTD SVG 1.1//EN" "http://www.w3.org/Graphics/SVG/1.1/DTD/svg11.dtd">
<svg version="1.1" id="Layer_1" xmlns="http://www.w3.org/2000/svg" xmlns:xlink="http://www.w3.org/1999/xlink" x="0px" y="0px"
	 width="355px" height="234px" viewBox="114.5 23.5 355 234" enable-background="new 114.5 23.5 355 234" xml:space="preserve">
<title>Communication</title>
<path d="M351.977,112.67c6.152-0.11,12.066,1.789,16.224,5.209c4.488,3.421,6.947,8.067,6.815,12.876v4.485L445,114.913v85.871
	l-69.023-20.4v5.933c0.213,9.827-10.186,17.924-23.227,18.086c-0.258,0.003-0.516,0.003-0.773,0h-73.44
	c-6.407,0.122-12.596-1.764-17.088-5.209c-4.571-3.385-7.075-8.049-6.912-12.877v-55.561c-0.214-9.827,10.185-17.924,23.226-18.085
	c0.258-0.003,0.516-0.003,0.774,0H351.977z M278.536,123.957c-2.37,0.04-4.618,0.795-6.24,2.097
	c-1.728,1.224-2.73,2.917-2.784,4.702v54.113c0.058,1.764,1.062,3.435,2.784,4.63c1.593,1.343,3.852,2.129,6.24,2.17h73.44
	c4.861-0.213,8.74-3.136,9.023-6.8v-21.703l69.023,20.329v-51.654L361,152.242v-21.703c-0.283-3.663-4.162-6.585-9.023-6.8
	L278.536,123.957z"/>
<polygon points="263.5,167.001 227.32,166.96 188.92,199.6 188.92,167.057 154.936,167.057 154.936,62.224 315.064,62.224 
	315.064,121.5 331,121.5 331,46 139,46 139,182.992 172.6,182.992 172.6,236.943 235,182.992 263.5,182.992 "/>
</svg>
