<?xml version="1.0" encoding="utf-8"?>
<!-- Generator: Adobe Illustrator 16.0.4, SVG Export Plug-In . SVG Version: 6.00 Build 0)  -->
<!DOCTYPE svg PUBLIC "-//W3C//DTD SVG 1.1//EN" "http://www.w3.org/Graphics/SVG/1.1/DTD/svg11.dtd">
<svg version="1.1" id="Layer_1" xmlns="http://www.w3.org/2000/svg" xmlns:xlink="http://www.w3.org/1999/xlink" x="0px" y="0px"
	 width="109.135px" height="61.271px" viewBox="0 0 109.135 61.271" enable-background="new 0 0 109.135 61.271"
	 xml:space="preserve">
<path fill="#B5B5B5" d="M34.992,12.642l3.772,12.301c0.165,0.492,0.656,0.737,1.148,0.737h12.301c1.23,0,1.721,1.641,0.737,2.378
	l-10.004,7.38c-0.411,0.328-0.574,0.902-0.411,1.395l4.757,12.631c0.328,1.148-0.903,2.133-1.887,1.395l-10.743-8.037
	c-0.41-0.328-0.984-0.328-1.476,0l-10.825,8.037c-0.985,0.738-2.296-0.246-1.886-1.395l4.593-12.631c0.164-0.492,0-1.066-0.41-1.395
	l-10.005-7.38c-0.984-0.738-0.41-2.378,0.738-2.378h12.302c0.574,0,0.984-0.164,1.148-0.737l3.854-12.383
	C33.023,11.412,34.663,11.494,34.992,12.642z"/>
<line fill="none" stroke="#B5B5B5" stroke-width="4" stroke-miterlimit="10" x1="63.5" y1="3.707" x2="63.5" y2="57.14"/>
<path fill="#B5B5B5" d="M74.575,26.024h18.98c0.539,0,0.913,0.697,0.483,1.18l-9.276,11.369c-0.32,0.429-1.018,0.429-1.34,0
	L74.04,27.204C73.663,26.721,73.986,26.024,74.575,26.024z"/>
<path fill="none" stroke="#B5B5B5" stroke-width="2" stroke-miterlimit="10" d="M103.347,49.674c0,4.254-3.582,7.703-8,7.703H13.97
	c-4.418,0-8-3.449-8-7.703V11.646c0-4.254,3.582-7.703,8-7.703h81.376c4.418,0,8,3.448,8,7.703V49.674z"/>
</svg>
