<?xml version="1.0" encoding="utf-8"?>
<!-- Generator: Adobe Illustrator 16.0.4, SVG Export Plug-In . SVG Version: 6.00 Build 0)  -->
<!DOCTYPE svg PUBLIC "-//W3C//DTD SVG 1.1//EN" "http://www.w3.org/Graphics/SVG/1.1/DTD/svg11.dtd">
<svg version="1.1" id="Layer_1" xmlns="http://www.w3.org/2000/svg" xmlns:xlink="http://www.w3.org/1999/xlink" x="0px" y="0px"
	 width="52px" height="52px" viewBox="0 0 52 52" enable-background="new 0 0 52 52" xml:space="preserve">
<path fill="none" stroke="#999999" stroke-width="2" stroke-miterlimit="10" d="M27.4,3.1l4.6,15c0.2,0.6,0.8,0.9,1.4,0.9h15
	c1.5,0,2.1,2,0.899,2.9l-12.2,9C36.6,31.3,36.4,32,36.6,32.6L42.4,48c0.399,1.4-1.101,2.6-2.301,1.7L27,39.9c-0.5-0.4-1.2-0.4-1.8,0
	L12,49.7C10.8,50.6,9.2,49.4,9.7,48l5.6-15.4c0.2-0.6,0-1.3-0.5-1.699l-12.2-9C1.4,21,2.1,19,3.5,19h15c0.7,0,1.2-0.2,1.4-0.9
	L24.6,3C25,1.6,27,1.7,27.4,3.1z"/>
</svg>
