<?xml version="1.0" encoding="utf-8"?>
<!-- Generator: Adobe Illustrator 16.0.4, SVG Export Plug-In . SVG Version: 6.00 Build 0)  -->
<!DOCTYPE svg PUBLIC "-//W3C//DTD SVG 1.1//EN" "http://www.w3.org/Graphics/SVG/1.1/DTD/svg11.dtd">
<svg version="1.1" id="Layer_1" xmlns="http://www.w3.org/2000/svg" xmlns:xlink="http://www.w3.org/1999/xlink" x="0px" y="0px"
	 width="100px" height="100px" viewBox="0 0 100 100" enable-background="new 0 0 100 100" xml:space="preserve">
<path fill="#B5B5B5" d="M79.5,74.1L62.9,57.6C66.3,52.9,68,46.9,67.1,40.5C65.6,29.8,56.9,21.3,46,20.3c-14.7-1.5-27.2,11-25.7,25.8
	c1,10.7,9.5,19.6,20.2,21.1c6.4,0.899,12.3-0.9,17.1-4.2L74.2,79.6c0.7,0.7,1.899,0.7,2.6,0L79.4,77C80.2,76.1,80.2,74.9,79.5,74.1z
	 M27.7,43.7c0-8.8,7.2-16.1,16.1-16.1c8.9,0,16.101,7.2,16.101,16.1c0,8.899-7.199,16.1-16.101,16.1C34.9,59.8,27.7,52.7,27.7,43.7z
	"/>
</svg>
